Coordinates
version=1
nRows=10
nColumns=40
inDegrees=yes

Units are S.I. units (second, meters, Newtons, ...)
Angles are in degrees.

endheader
time	pelvis_tilt	pelvis_list	pelvis_rotation	pelvis_tx	pelvis_ty	pelvis_tz	hip_flexion_r	hip_adduction_r	hip_rotation_r	knee_angle_r	knee_angle_r_beta	ankle_angle_r	subtalar_angle_r	mtp_angle_r	hip_flexion_l	hip_adduction_l	hip_rotation_l	knee_angle_l	knee_angle_l_beta	ankle_angle_l	subtalar_angle_l	mtp_angle_l	lumbar_extension	lumbar_bending	lumbar_rotation	arm_flex_r	arm_add_r	arm_rot_r	elbow_flex_r	pro_sup_r	wrist_flex_r	wrist_dev_r	arm_flex_l	arm_add_l	arm_rot_l	elbow_flex_l	pro_sup_l	wrist_flex_l	wrist_dev_l
      0.63000000	     -1.56783754	     -0.98268429	      5.34706423	      0.18413565	      0.92553667	     -1.02739417	     29.73437162	     -4.78014735	    -18.32284528	    -27.92117728	     -0.48731647	     -6.49634726	    -10.26741358	      0.13109460	    -12.57503971	      9.67005253	     13.28926783	    -28.23029208	     -0.49271155	     -5.45807784	     -1.63608161	    -12.39599759	     -0.84945440	      4.58502684	    -11.64723330	    -11.49583435	    -11.99387530	    -31.05898275	      9.90154158	     89.95437384	      0.00000000	      0.00000000	     14.74212041	     20.53657271	     11.13539921	     53.73238344	     89.95437384	      0.00000000	      0.00000000
      0.64000000	     -1.49633766	     -1.11816877	      5.10180373	      0.19769631	      0.92675795	     -1.02382564	     29.17357859	     -4.16320567	    -17.74820489	    -28.75669843	     -0.50189907	     -5.20090595	    -10.63105629	     -0.17383672	    -11.52207403	     10.17279520	     13.33098804	    -31.00130268	     -0.54107480	     -8.34283630	      0.54719965	    -11.26808110	     -0.78866086	      4.67655929	    -11.20960145	    -11.30656463	    -11.78329100	    -30.64520024	      9.99818965	     89.95437384	      0.00000000	      0.00000000	     13.68894953	     20.01840973	     11.24650617	     54.26315364	     89.95437384	      0.00000000	      0.00000000
      0.65000000	     -1.60113871	     -1.69459940	      4.89621444	      0.21087871	      0.92796579	     -1.01990464	     28.61782788	     -2.98166378	    -17.16784723	    -29.13603868	     -0.50851981	     -4.01285896	    -11.01865498	     -0.39824703	     -9.94706126	     11.10664624	     13.09256595	    -33.98155396	     -0.59309000	    -11.06447509	      3.30161038	    -10.19111451	     -0.51949832	      5.20697009	    -10.79370235	    -10.93183401	    -11.63611698	    -30.22229211	      9.84621853	     89.95437384	      0.00000000	      0.00000000	     12.62337423	     19.39119202	     11.41842338	     54.63862039	     89.95437384	      0.00000000	      0.00000000
      0.66000000	     -1.81169701	     -2.37766491	      4.80723806	      0.22330927	      0.92924581	     -1.01602337	     28.06867478	     -1.69612019	    -16.61963671	    -29.20174414	     -0.50966658	     -3.21631449	    -11.60692529	     -0.40480849	     -7.92015257	     12.14661989	     12.53843249	    -37.27334090	     -0.65054252	    -12.94344741	      5.78462733	     -9.40956086	     -0.18622518	      5.81549927	    -10.50173197	    -10.51735872	    -11.43258088	    -29.91693598	     10.03984733	     89.95437384	      0.00000000	      0.00000000	     11.61522421	     18.74119051	     11.60803367	     54.81781571	     89.95437384	      0.00000000	      0.00000000
      0.67000000	     -1.90225796	     -3.08359730	      4.74167538	      0.23549992	      0.93083512	     -1.01237522	     27.28155712	     -0.38866753	    -16.16673292	    -29.06743977	     -0.50732253	     -2.20007776	    -12.14670628	     -0.35416018	     -5.91178587	     13.19692201	     12.01447050	    -40.59983187	     -0.70860074	    -13.41637260	      8.24426403	     -8.99793713	     -0.03371720	      6.46918518	    -10.12211922	     -9.97440975	    -11.28340721	    -29.51301198	     10.06674609	     89.95437384	      0.00000000	      0.00000000	     10.71240129	     18.09165793	     11.54984874	     54.84987280	     89.95437384	      0.00000000	      0.00000000
      0.68000000	     -2.19931543	     -3.82033697	      4.72994579	      0.24729146	      0.93214067	     -1.00907088	     26.67265811	      0.88649129	    -15.79784018	    -28.68913182	     -0.50071981	     -1.63336415	    -12.66831242	     -0.03949079	     -3.48049905	     14.25514952	     11.57729155	    -44.04076461	     -0.76865635	    -12.52257834	     11.04895881	     -8.75294876	      0.33945148	      7.17115291	     -9.81679924	     -9.55935959	    -11.11317658	    -29.22970628	     10.58414984	     89.95437384	      0.00000000	      0.00000000	      9.82366983	     17.32631790	     11.65551802	     54.66118892	     89.95437384	      0.00000000	      0.00000000
      0.69000000	     -2.25081872	     -4.20754911	      4.70624010	      0.25887806	      0.93402936	     -1.00620767	     25.80805527	      1.74416383	    -15.35333683	    -28.43984743	     -0.49636898	     -0.86564553	    -12.95746029	      0.15238333	     -1.41281768	     14.85126992	     11.27415994	    -47.04686609	     -0.82112272	    -11.10431287	     13.12467564	     -8.59905061	      0.35181459	      7.51209770	     -9.39215517	     -8.91995901	    -10.95990129	    -28.99795378	     10.79474054	     89.95437384	      0.00000000	      0.00000000	      9.04221748	     16.65442963	     11.47672736	     54.32213514	     89.95437384	      0.00000000	      0.00000000
      0.70000000	     -2.98980776	     -4.54831106	      4.79717567	      0.26953891	      0.93501166	     -1.00354278	     25.81181925	      2.45003816	    -14.91183403	    -28.27184126	     -0.49343672	      0.61286547	    -13.57631721	      8.72671620	      1.79470507	     15.31387095	     10.80228152	    -50.38132533	     -0.87932001	     -7.62254229	     14.20332224	      0.61746490	      1.11567721	      7.71377785	     -9.14220912	     -8.44195278	    -10.77538808	    -28.67692874	     11.43897967	     89.95437384	      0.00000000	      0.00000000	      8.26006911	     15.91274958	     11.49306666	     53.72086540	     89.95437384	      0.00000000	      0.00000000
      0.71000000	     -3.13232340	     -4.61236584	      4.85720155	      0.28049909	      0.93709141	     -1.00115536	     24.97421681	      2.76677555	    -14.96595787	    -27.84593457	     -0.48600324	      1.12608528	    -13.38562801	      8.45435672	      3.97602865	     15.38044656	     10.51684791	    -52.67074336	     -0.91927789	     -6.18970021	     15.82458740	      0.85020502	      1.15586613	      7.66889511	     -8.74278247	     -7.82869256	    -10.55119888	    -28.62723453	     12.03442785	     89.95437384	      0.00000000	      0.00000000	      7.56688739	     15.35945072	     11.14332759	     53.00553946	     89.95437384	      0.00000000	      0.00000000
      0.72000000	     -3.02896313	     -4.46123794	      4.87658887	      0.29136293	      0.93972083	     -0.99913004	     23.80162277	      2.87733535	    -14.93619075	    -27.32860504	     -0.47697414	      1.73413600	    -13.11554795	      8.22206664	      5.73831015	     15.04214835	     10.16365184	    -54.47939930	     -0.95084489	     -4.81880295	     17.03659689	      0.91329757	      0.84398634	      7.44630983	     -8.21737513	     -7.10629919	    -10.37012120	    -28.39122687	     12.57544919	     89.95437384	      0.00000000	      0.00000000	      7.00298342	     14.73630896	     10.85673133	     52.07394912	     89.95437384	      0.00000000	      0.00000000
